<svg width="64" height="64" viewBox="0 0 64 64" fill="none" xmlns="http://www.w3.org/2000/svg">
<mask id="mask0_715_3439" style="mask-type:alpha" maskUnits="userSpaceOnUse" x="0" y="0" width="64" height="64">
<rect width="64" height="64" fill="#D9D9D9"/>
</mask>
<g mask="url(#mask0_715_3439)">
<path d="M25.334 44.0006L44.0006 32.0006L25.334 20.0007V44.0006ZM32.0006 58.6673C28.3118 58.6673 24.8451 57.9673 21.6006 56.5673C18.3562 55.1673 15.534 53.2673 13.134 50.8673C10.734 48.4673 8.83398 45.6451 7.43398 42.4007C6.03398 39.1562 5.33398 35.6895 5.33398 32.0006C5.33398 28.3118 6.03398 24.8451 7.43398 21.6006C8.83398 18.3562 10.734 15.534 13.134 13.134C15.534 10.734 18.3562 8.83398 21.6006 7.43398C24.8451 6.03398 28.3118 5.33398 32.0006 5.33398C35.6895 5.33398 39.1562 6.03398 42.4007 7.43398C45.6451 8.83398 48.4673 10.734 50.8673 13.134C53.2673 15.534 55.1673 18.3562 56.5673 21.6006C57.9673 24.8451 58.6673 28.3118 58.6673 32.0006C58.6673 35.6895 57.9673 39.1562 56.5673 42.4007C55.1673 45.6451 53.2673 48.4673 50.8673 50.8673C48.4673 53.2673 45.6451 55.1673 42.4007 56.5673C39.1562 57.9673 35.6895 58.6673 32.0006 58.6673Z" fill="white"/>
</g>
</svg>
